<?xml version="1.0" encoding="UTF-8" standalone="no"?>
<svg
   xmlns:dc="http://purl.org/dc/elements/1.1/"
   xmlns:cc="http://creativecommons.org/ns#"
   xmlns:rdf="http://www.w3.org/1999/02/22-rdf-syntax-ns#"
   xmlns:svg="http://www.w3.org/2000/svg"
   xmlns="http://www.w3.org/2000/svg"
   xmlns:sodipodi="http://sodipodi.sourceforge.net/DTD/sodipodi-0.dtd"
   xmlns:inkscape="http://www.inkscape.org/namespaces/inkscape"
   version="1.1"
   id="Layer_1"
   x="0px"
   y="0px"
   viewBox="0 0 512 512"
   style="enable-background:new 0 0 512 512;"
   xml:space="preserve"
   sodipodi:docname="chaintip_gray.svg"
   inkscape:version="1.0.2 (e86c870879, 2021-01-15)"><metadata
   id="metadata23"><rdf:RDF><cc:Work
       rdf:about=""><dc:format>image/svg+xml</dc:format><dc:type
         rdf:resource="http://purl.org/dc/dcmitype/StillImage" /><dc:title /></cc:Work></rdf:RDF></metadata><defs
   id="defs21" /><sodipodi:namedview
   pagecolor="#ffffff"
   bordercolor="#666666"
   borderopacity="1"
   objecttolerance="10"
   gridtolerance="10"
   guidetolerance="10"
   inkscape:pageopacity="0"
   inkscape:pageshadow="2"
   inkscape:window-width="2560"
   inkscape:window-height="1440"
   id="namedview19"
   showgrid="false"
   inkscape:zoom="1.96875"
   inkscape:cx="198.31089"
   inkscape:cy="256"
   inkscape:window-x="0"
   inkscape:window-y="0"
   inkscape:window-maximized="0"
   inkscape:current-layer="Layer_1"
   inkscape:document-rotation="0" />
<style
   type="text/css"
   id="style2">
	.st0{fill:#071C21;}
	.st1{fill:#8DC63F;}
	.st2{fill:#FFFFFF;}
	.st3{opacity:0.4;}
</style>
<path
   class="st0"
   d="M443,512H69c-38.1,0-69-30.9-69-69V69C0,30.9,30.9,0,69,0h374c38.1,0,69,30.9,69,69v374  C512,481.1,481.1,512,443,512z"
   id="path4"
   style="fill:#121212;fill-opacity:0.22939101" />
<g
   id="g16">
	<path
   class="st1"
   d="M219.7,362.9c-9-9-16.7-18.9-23.2-29.7c-3.1,0.4-6.3,0.6-9.5,0.6c-8.7,0-17-1.3-24.9-4   c-7.9-2.7-15.1-6.5-21.5-11.4c-2.4-1.4-4.3-2-5.9-1.8c-1.6,0.3-3.2,1.5-4.7,3.6l-33.8,48.6c-1.4,2.9-1.6,5.3-0.6,7.3   c1.1,2,2.7,3.6,4.9,4.9c12.4,8.3,25.7,14.7,40,19.3c14.3,4.5,29.3,6.8,45.1,6.8c14,0,27.4-1.8,40.2-5.3c10.6-2.9,20.7-6.9,30.2-12   c-2-1-3.9-2.1-5.8-3.2C239,379.9,228.8,372,219.7,362.9z"
   id="path6"
   style="fill:#fdfefc;fill-opacity:1" />
	<path
   class="st2"
   d="M415.9,368.7l-33.8-48.6c-1.6-2.1-3.2-3.3-4.7-3.6c-1.6-0.3-3.6,0.3-5.9,1.8c-6.5,4.9-13.6,8.7-21.5,11.4   c-7.9,2.7-16.2,4-24.9,4c-3.3,0-6.4-0.2-9.5-0.6c0,0,0,0,0,0c-7.2-0.9-14-2.7-20.3-5.5c-9.1-4.1-16.9-9.6-23.5-16.7   c-6.6-7-11.7-15.3-15.4-24.7c-0.1-0.3-0.2-0.5-0.3-0.8c0,0,0,0,0,0c-3.5-9.2-5.2-19-5.2-29.5c0-10.8,1.8-20.9,5.5-30.4   c3.7-9.5,8.8-17.8,15.4-24.9c6.6-7.1,14.4-12.7,23.5-16.8c9.1-4.1,19-6.1,29.8-6.1c8.7,0,16.9,1.3,24.7,3.9   c7.8,2.6,14.9,6.4,21.3,11.3c2.4,1.5,4.4,2,6,1.7c1.6-0.3,3.2-1.6,4.6-3.9l33.4-47.4c1.4-2.9,1.6-5.4,0.6-7.5   c-1.1-2.1-2.7-3.8-4.9-5.1c-12.4-8.3-25.6-14.6-39.6-19.1c-14-4.4-28.9-6.6-44.7-6.6c-14,0-27.4,1.8-40.2,5.4   c-12.8,3.6-24.9,8.7-36,15.2c-11.2,6.5-21.4,14.4-30.5,23.6c-9.2,9.2-17,19.5-23.6,30.7s-11.7,23.3-15.2,36.1   c-3.6,12.8-5.3,26.2-5.3,40.2c0,14,1.8,27.4,5.3,40.2c3.6,12.8,8.6,24.8,15.2,35.9c0.1,0.2,0.3,0.5,0.4,0.7   c6.5,10.9,14.2,20.8,23.2,29.7c9.2,9.2,19.3,17,30.5,23.6c1.9,1.1,3.9,2.2,5.8,3.2c9.5,5,19.6,9,30.2,12   c12.8,3.6,26.2,5.3,40.2,5.3c15.8,0,30.8-2.3,45.1-6.8c14.3-4.5,27.6-11,40-19.3c2.2-1.3,3.9-3,4.9-4.9   C417.5,374,417.3,371.6,415.9,368.7z"
   id="path8"
   style="fill:#ffffff;fill-opacity:0.54412478" />
	<path
   class="st3"
   d="M240.3,200.6c-6.6-7.1-14.4-12.7-23.5-16.8c-6.2-2.8-12.7-4.6-19.7-5.5c-0.4,0.7-0.9,1.4-1.4,2.2   c-1.6,2.6-3,5.3-4.4,8.1c21.4,0.9,54.9,20.6,63.1,42.9c0.5-1.6,1-3.2,1.6-4.7c0-0.1,0.1-0.2,0.1-0.2c-0.1-0.3-0.2-0.7-0.4-1   C252,216,246.9,207.7,240.3,200.6z"
   id="path10" />
	<path
   class="st1"
   d="M336.5,256L336.5,256c0-13.8-1.8-27.2-5.3-39.9c-3.6-12.8-8.6-24.9-15.2-36.1c-6.6-11.3-14.4-21.5-23.6-30.7   c-9.2-9.2-19.3-17.1-30.5-23.6c-11.2-6.5-23.2-11.6-36-15.2c-12.8-3.6-26.2-5.4-40.2-5.4c-15.8,0-30.7,2.2-44.7,6.6   c-14,4.4-27.2,10.8-39.6,19.1c-2.2,1.3-3.9,3-4.9,5.1c-1.1,2.1-0.9,4.6,0.6,7.5l33.4,47.4c1.5,2.2,3,3.5,4.6,3.9   c1.6,0.3,3.7-0.2,6-1.7c6.5-4.9,13.6-8.6,21.3-11.3c7.8-2.6,16-3.9,24.7-3.9c3.5,0,6.8,0.2,10.1,0.7c7,0.9,13.5,2.7,19.7,5.5   c9.1,4.1,16.9,9.7,23.5,16.8c6.6,7.1,11.7,15.4,15.4,24.9c0.1,0.3,0.2,0.7,0.4,1c3.4,9.2,5.2,19,5.2,29.4c0,0,0,0.1,0,0.1h0   c0,9-1.3,17.5-3.9,25.6c-0.4,1.3-0.9,2.6-1.3,3.8c0.1,0.3,0.2,0.5,0.3,0.8c3.7,9.4,8.8,17.6,15.4,24.7c6.6,7,14.4,12.6,23.5,16.7   c6.3,2.9,13.1,4.7,20.3,5.5c0.1-0.2,0.3-0.5,0.4-0.7c0,0,0,0,0,0c0-0.1,0.1-0.1,0.1-0.2c6.5-11.1,11.6-23,15.1-35.8   c3.6-12.8,5.3-26.2,5.3-40.2C336.5,256.2,336.5,256.1,336.5,256z"
   id="path12"
   style="fill:#fdfefc;fill-opacity:1" />
	<path
   class="st3"
   d="M256.3,286.2c3.7,9.4,8.8,17.6,15.4,24.7c6.6,7,14.4,12.6,23.5,16.7c6.3,2.9,13.1,4.7,20.3,5.5   c0.1-0.2,0.3-0.5,0.4-0.7c0,0,0,0,0,0c0-0.1,0.1-0.1,0.1-0.2c1.5-2.6,3-5.2,4.3-7.9c-21.4-0.9-54.8-20.5-63-42.8   c-0.4,1.3-0.9,2.6-1.3,3.8C256.1,285.7,256.2,286,256.3,286.2z"
   id="path14" />
</g>
</svg>
